<?xml version="1.0" encoding="UTF-8"?>
<svg version="1.1" viewBox="0 0 1136 1600" width="1280" height="1280" xmlns="http://www.w3.org/2000/svg">
<path transform="translate(0)" d="m0 0h1136v1600h-1136v-1600z" fill="#FDFDFD"/>
<path transform="translate(338,655)" d="m0 0c3.37 3.83 5.4 7.77 7.31 12.4 2.74 6.46 5.69 12.8 8.88 19 1.25 2.45 2.47 4.91 3.67 7.38 4.89 10 10.4 19.6 16.1 29.2-2.48 3.72-5.33 4.76-9.25 6.56-5.92 2.83-11.4 5.97-16.7 9.81-0.895 0.643-0.895 0.643-1.81 1.3-3.11 2.23-3.11 2.23-5.25 5.33 5.38-0.647 10-2.38 15.1-4.31 5.74-2.15 11.5-4.29 17.3-6.19 0.977-0.32 1.95-0.639 2.96-0.969 3.04-0.607 4.75-0.619 7.66 0.469 1.88 2.07 1.88 2.07 3.56 4.69 0.597 0.902 1.19 1.8 1.81 2.73 0.938 1.48 1.87 2.97 2.79 4.47 2.19 3.51 4.27 5.1 7.84 7.11-0.273-0.816-0.273-0.816-0.551-1.65-0.826-2.49-1.64-4.98-2.45-7.48-0.286-0.856-0.572-1.71-0.867-2.59-1.47-4.56-2.52-8.42-2.13-13.3 3.73-1.18 7.46-2.34 11.2-3.5 1.06-0.334 2.11-0.668 3.2-1.01 1.02-0.316 2.04-0.632 3.1-0.957 0.937-0.293 1.87-0.587 2.84-0.889 2.75-0.659 4.87-1.01 7.68-0.643 7.06 6.34 11 18.8 15.2 27.2 1.21 2.46 2.42 4.91 3.64 7.37 0.751 1.52 1.5 3.04 2.24 4.56 2.87 6.91 2.87 6.91 7.93 11.8-2.39-9.85-4.94-19.6-7.56-29.4-0.439-1.65-0.439-1.65-0.887-3.34-1.49-5.55-3.07-11-5.05-16.4-0.691-2.5-0.363-4.41 0.495-6.83 4.65-1.48 9-2.34 13.9-2.77 2.36-0.211 2.36-0.211 5.45-1.05 2.69-0.188 2.69-0.188 4.63 1.5 2.04 2.29 3.84 4.63 5.62 7.12 0.691 0.964 1.38 1.93 2.09 2.92 0.374 0.523 0.748 1.05 1.13 1.58 1.76 2.45 3.55 4.87 5.34 7.3 2.3 3.12 4.58 6.25 6.87 9.38 0.909 1.24 0.909 1.24 1.84 2.51 17.4 24.4 31.3 50.2 38.2 79.5 1.32 0.33 2.64 0.66 4 1 0.437-0.909 0.437-0.909 0.883-1.84 8.29-16.9 8.29-16.9 13.1-20.2 1.95 4.35 2.91 8.79 3.81 13.4 0.251 1.28 0.251 1.28 0.507 2.59 6.09 31.6 9.97 62.7 9.68 95h2c0.499-1.2 0.998-2.41 1.51-3.64 8.05-19.2 16.8-38.2 27.1-56.3 0.488-0.864 0.977-1.73 1.48-2.62 2.3-3.96 4.45-7.41 7.96-10.4 1.77 1.77 1.17 4.11 1.19 6.47-0.026 23.3-2.21 46.6-6.19 69.5h2c1.26-1.47 1.26-1.47 2.5-3.5 0.525-0.81 1.05-1.62 1.59-2.45 1.46-2.34 2.91-4.68 4.35-7.03 0.432-0.702 0.864-1.4 1.31-2.13 0.86-1.4 1.71-2.81 2.56-4.21 2.52-4.12 5.13-7.4 8.69-10.7 3.1 5.47 4.61 11.2 6.19 17.2 0.409 1.48 0.409 1.48 0.826 2.99 2.85 10.8 2.24 19.5-0.576 30.3-0.271 1.05-0.542 2.1-0.821 3.18-5.2 19.5-13.4 39.1-25.6 55.3-0.679 0.908-0.679 0.908-1.37 1.83-9.18 12.2-18.6 24.1-29 35.4-4.41 4.78-8.7 9.59-12.6 14.8-1.01 1.26-2.03 2.51-3.06 3.75-0.76 0.92-0.76 0.92-1.54 1.86-1.4 1.39-1.4 1.39-3.4 1.39v2c-7.83 4.24-15.9 7.28-24.3 10.2-1.38 0.482-2.76 0.965-4.14 1.45-2.82 0.987-5.65 1.97-8.47 2.95-3.72 1.29-7.43 2.59-11.1 3.9-13.4 4.68-26.8 9.18-40.3 13.6-1.76 0.574-3.51 1.15-5.27 1.72-34.3 11.3-34.3 11.3-45.1 7.14-2.59-1.47-4.87-3.08-7.21-4.93-0.735-0.557-1.47-1.11-2.23-1.69-7.05-5.78-12.4-13.1-17.8-20.3-0.823-1.1-0.823-1.1-1.66-2.22-21-28.1-21-28.1-29.9-42.4-0.971-1.56-1.97-3.11-3-4.63-1.94-2.9-3.34-5.1-4.03-8.54 0.762-2.96 2.05-3.51 4.56-5.19 14.7-8.08 33.1-10.6 49.5-13 21-3.13 43.4-10.1 57.7-26.5 4.05-5.58 4.52-10.7 3.81-17.5-1.84-4.86-4.49-9.79-9.32-12.1-9.37-3.1-18.2-0.0877-26.7 4.11-8.14 4.78-14.4 10.9-20.5 18-7.77 8.94-16.6 16-26.1 22.9-0.724 0.527-1.45 1.05-2.2 1.6-0.625 0.443-1.25 0.887-1.89 1.34-0.427 0.382-0.853 0.763-1.29 1.16v2c6.17-2.06 11.9-5.35 17.8-8.25 1.07-0.535 1.07-0.535 2.17-1.08 21.3-10.6 21.3-10.6 41.6-23 2.35-1.57 3.79-2.15 6.51-2.68 1.67-0.647 3.34-1.31 5-2-3.73 4.89-7.69 8.28-12.8 11.8-0.746 0.518-1.49 1.04-2.26 1.57-7.76 5.32-15.8 10.1-24 14.7-1.13 0.63-1.13 0.63-2.27 1.27-15.6 8.68-31.7 15.2-48.7 20.7-1.39 0.455-1.39 0.455-2.82 0.919-0.874 0.274-1.75 0.549-2.65 0.831-0.768 0.242-1.54 0.485-2.33 0.734-2.54 0.576-4.68 0.738-7.27 0.516-4.47-3.62-7.44-8.34-10.6-13.1-5.26-7.61-10.9-14.3-17.4-20.9-1.21-1.29-1.21-1.29-2.45-2.61-9.14-9.51-19.4-16.9-30.6-23.6-3.44-2.09-6.67-4.36-9.9-6.76 1.53-4.22 4.26-5.79 7.94-8.19 6.35-4.25 12.3-8.84 18.1-13.8 0.928-0.781 1.86-1.56 2.81-2.37 10.9-9.47 20.2-20.1 21.4-35 0.26-8.95-1.19-17.6-2.58-26.4-0.715-4.56-1.39-9.13-2.07-13.7-0.135-0.904-0.269-1.81-0.408-2.74-6.04-40.8-4.74-79.7 5.87-120 0.316-1.19 0.631-2.39 0.957-3.62 3.88-14.4 8.5-28.3 14.4-41.9 0.755-1.77 0.755-1.77 1.53-3.57 2.29-5.19 4.46-9.52 8.16-13.9z" fill="#000002"/>
<path transform="translate(168 420)" d="m0 0c1.02 0.00881 1.02 0.00881 2.06 0.0178 14.1 0.141 27.7 1.84 41.6 4.48 0.676 0.128 1.35 0.256 2.05 0.389 15.6 2.97 31.1 6.05 46.4 10.6 3.25 0.941 6.47 1.71 9.77 2.41 8.99 2.01 17.7 4.87 26.5 7.61 3.37 1.04 6.75 2.07 10.1 3.09 41.1 12.5 82.1 27.3 121 45.9 2.75 1.3 5.52 2.56 8.28 3.83 24.4 11.2 48.7 22.8 72 36.2 2.74 1.57 5.48 3.15 8.22 4.72 1.79 1.03 3.57 2.05 5.35 3.09 5 2.88 10.1 5.55 15.2 8.1 2.47 1.24 4.84 2.59 7.19 4.03l2.5 1.53c0.824 0.507 1.65 1.01 2.5 1.54 5.21 3.18 10.4 6.25 15.8 9.12 3.73 2.01 6.92 4.17 10.2 6.88 1.24 0.605 1.24 0.605 2.5 1.22 4.74 2.41 9.18 5.21 13.7 8.03 0.941 0.586 1.88 1.17 2.85 1.77 7.39 4.6 14.7 9.26 22.1 14 1.13 0.731 2.27 1.46 3.4 2.19 0.575 0.371 1.15 0.742 1.74 1.12 4.29 2.76 8.59 5.48 12.9 8.19 7.03 4.42 14 8.87 20.9 13.5 2.17 1.46 4.34 2.91 6.52 4.34 6.89 4.55 13.7 9.2 20.4 14 3.57 2.57 7.19 5.06 10.9 7.48 5.04 3.33 10 6.77 14.9 10.2 0.697 0.491 1.39 0.982 2.11 1.49 4.12 2.92 8.18 5.91 12.2 8.95 2.94 2.2 5.93 4.32 8.93 6.44 5.06 3.6 10.1 7.25 15 11 1.9 1.42 3.79 2.83 5.69 4.25 10.6 7.98 21.1 16.1 31.6 24.4 1.73 1.36 3.46 2.71 5.19 4.07 6.93 5.41 13.8 10.9 20.6 16.5 4.45 3.63 8.95 7.19 13.5 10.7 4.29 3.35 8.48 6.78 12.5 10.4 2.29 2.01 4.65 3.93 7.02 5.84 4.51 3.67 8.93 7.43 13.3 11.2 4.96 4.32 9.93 8.62 14.9 12.9 0.545 0.466 1.09 0.932 1.65 1.41 2.84 2.42 2.84 2.42 6.04 4.34v2c0.535 0.215 1.07 0.431 1.62 0.652 3.25 1.84 5.76 4.35 8.44 6.91 4.15 3.92 8.36 7.67 12.8 11.2 3.72 2.99 7.14 6.09 10.5 9.52 2.4 2.41 4.96 4.6 7.53 6.82 7.6 6.59 14.9 13.5 22.3 20.3 3.54 3.33 7.1 6.61 10.8 9.82 19.7 17.6 49.3 45 51.3 73.5 0.165 10.8 0.165 10.8-3.2 15.2-8.83 8.58-19.4 9.56-31.2 9.5-1.29-0.00572-2.58-0.0114-3.9-0.0173-38.6-0.524-81.2-8.11-116-25.5l-2.66-1.24c-16-7.58-16-7.58-18.1-12.6-0.26-2.64-0.149-5.18-0.0234-7.83 0.149-22.1-11-43.2-24.2-60.3l-1.9-2.48c-6.84-8.77-14.2-17.3-22.8-24.5-2.6-2.26-5.09-4.62-7.58-6.99-6.27-5.96-12.7-11.4-19.6-16.6-5.01-3.82-9.76-7.92-14.5-12-7.28-6.24-14.6-12.4-22.1-18.4-2.79-2.24-5.52-4.53-8.26-6.83-5.55-4.64-11.2-9.12-16.9-13.6-2.97-2.32-5.91-4.68-8.84-7.05-2.56-2.06-5.06-3.93-7.81-5.75-2.96-1.99-5.17-4.29-7.69-6.81-2.93-2.42-5.97-4.7-9-7-1.26-0.96-2.51-1.92-3.77-2.88-2.89-2.22-5.79-4.43-8.68-6.64-3-2.29-6.01-4.59-9.01-6.89-4.18-3.2-8.36-6.39-12.5-9.59-1.04-0.79-2.07-1.58-3.14-2.39-6.33-4.79-12.8-9.39-19.3-13.9-5.04-3.54-9.98-7.19-14.9-10.9-5.82-4.4-11.7-8.56-17.8-12.5-3.11-2.04-6.2-4.12-9.3-6.19-4.51-3.02-9.03-6.02-13.5-9.02-0.728-0.484-1.46-0.967-2.21-1.47-13-8.61-26.4-16.6-39.8-24.5-1.52-0.903-1.52-0.903-3.08-1.83-6.3-3.74-12.6-7.46-18.9-11.2-0.638-0.376-1.28-0.752-1.93-1.14-12-7.08-24.3-13.6-36.6-20-3.39-1.77-6.78-3.56-10.2-5.37-61-33.6-61-33.6-129-38.8-8.14 2.48-15.8 6.23-20.3 13.7-2.08 4.22-2.74 7.95-3 12.6-5.32-0.401-8.58-3.39-12.6-6.56-1.44-1.11-2.88-2.21-4.32-3.32-0.698-0.539-1.4-1.08-2.11-1.63-2.42-1.86-4.89-3.64-7.37-5.42-11.5-8.31-22.7-17-33.6-26.1-1.79-1.46-3.58-2.92-5.38-4.38-4.64-3.79-9.22-7.65-13.8-11.5-3.49-2.96-7.02-5.85-10.6-8.72-4.33-3.52-8.25-7.27-12.1-11.3-1.96-1.96-3.99-3.76-6.11-5.55-3.92-3.37-7.31-7.09-10.7-11-1.49-1.69-3.02-3.34-4.58-4.96-6.74-7.06-16.3-18.5-16.8-28.7 0.59-4.72 1.45-7.64 5.12-10.9 7.4-4.67 14.9-4.62 23.4-4.5z" fill="#000002"/>
<path transform="translate(749,437)" d="m0 0c0.557 0.381 1.11 0.762 1.69 1.15 16.3 11.2 31.7 23.9 45.5 38.1 1.71 1.82 1.71 1.82 3.81 2.75v2c0.639 0.268 1.28 0.536 1.94 0.812 2.06 1.19 2.06 1.19 3.06 4.19 1.32 0.683 2.66 1.35 4 2 1.68 1.7 1.68 1.7 3.31 3.69 2.26 2.67 4.54 5.2 7.06 7.62 4.62 4.55 8.59 9.62 12.6 14.7 0.575 0.708 1.15 1.42 1.74 2.14 62 77.6 56.5 172 54.3 266-0.33-0.66-0.66-1.32-1-2-0.738-0.269-1.48-0.537-2.24-0.814-3.47-1.49-5.37-3.47-8-6.17-0.484-0.491-0.969-0.982-1.47-1.49-1.54-1.57-3.07-3.14-4.61-4.72-2.01-2.06-4.03-4.12-6.05-6.17-0.487-0.495-0.973-0.991-1.47-1.5-3.36-3.4-6.83-6.61-10.5-9.69-1.82-1.57-3.5-3.24-5.18-4.96-2.39-2.43-4.85-4.71-7.44-6.94-3.53-3.04-6.79-6.27-10.1-9.59-2.59-2.55-5.32-4.89-8.07-7.26-1.89-1.67-3.67-3.41-5.43-5.21-2.99-3.04-6.12-5.84-9.34-8.62-2.37-2.06-4.7-4.15-7.04-6.25-0.843-0.759-1.69-1.52-2.55-2.3-1.7-1.53-3.39-3.07-5.08-4.62-4.8-4.37-9.69-8.52-14.8-12.5-6.76-5.41-13.3-11.1-19.8-16.8-4.85-4.26-9.86-8.32-14.9-12.4-0.636-0.514-1.27-1.03-1.93-1.56-2.04-1.65-4.09-3.3-6.14-4.94-0.656-0.529-1.31-1.06-1.99-1.6-3.31-2.7-3.31-2.7-6.95-4.9v-2c-0.536-0.236-1.07-0.472-1.62-0.715-3.04-1.64-5.67-3.72-8.38-5.85-1.17-0.913-2.35-1.83-3.52-2.74-0.587-0.457-1.17-0.914-1.78-1.39-15.3-11.8-30.9-23.2-46.7-34.3-0.82-0.588-1.64-1.18-2.48-1.78-7.27-5.17-14.8-9.97-22.3-14.8-2.79-1.8-5.57-3.6-8.35-5.41-3.62-2.35-7.24-4.68-10.9-7.02-0.863-0.556-1.73-1.11-2.62-1.69-11.3-7.3-22.8-14.4-34.4-21.2-3.12-1.83-6.22-3.7-9.32-5.57-20.8-12.5-42.1-24.3-63.6-35.6-1.06-0.553-2.12-1.11-3.21-1.67-13.2-6.88-26.4-13.7-39.8-20.3-1.17-0.597-2.35-1.19-3.56-1.81-6.64-3.32-13.4-6.37-20.2-9.48-7.49-3.45-14.9-6.96-22.3-10.7 1-3 1-3 2.69-4.02 0.735-0.304 1.47-0.608 2.23-0.921 0.83-0.35 1.66-0.699 2.51-1.06 0.909-0.37 1.82-0.739 2.76-1.12 0.951-0.395 1.9-0.789 2.88-1.2 2-0.828 4-1.65 6-2.47 2.66-1.1 5.31-2.23 7.95-3.38 86.2-37 198-59.5 301-3.83z" fill="#000002"/>
<path transform="translate(721,961)" d="m0 0c0.99 0.33 1.98 0.66 3 1 0.0198 1.19 0.0396 2.39 0.0601 3.61 0.533 31.6 1.3 63.1 2.21 94.7 0.0886 3.09 0.176 6.17 0.264 9.26 0.0606 2.12 0.123 4.24 0.186 6.36 0.105 3.68 0.193 7.36 0.279 11 0.0581 1.63 0.0581 1.63 0.117 3.29 0.024 0.986 0.048 1.97 0.0727 2.99 0.027 0.851 0.054 1.7 0.0818 2.58-0.272 2.14-0.272 2.14-2.91 4.94-1.18 0.693-2.39 1.34-3.61 1.95-0.635 0.36-1.27 0.72-1.92 1.09-1.3 0.735-2.61 1.45-3.93 2.15-2.74 1.46-5.41 3.05-8.08 4.63-0.975 0.561-1.95 1.12-2.95 1.7-3.75 2.2-7.4 4.53-11.1 6.88-3.97 2.53-7.98 4.99-12 7.45-2.84 1.74-5.67 3.49-8.5 5.25-9.29 5.76-18.6 11.5-27.9 17.2-7.96 4.83-15.9 9.75-23.7 14.7-5.34 3.38-10.7 6.67-16.2 9.9-5.26 3.13-10.4 6.36-15.6 9.62-3.2 2.01-6.4 4.01-9.62 5.98-0.59 0.361-1.18 0.722-1.79 1.09-1.59 0.972-3.19 1.94-4.78 2.91-2.66 1.59-2.66 1.59-4.72 3.48-1.95 1.21-1.95 1.21-4.58 0.791-0.785-0.19-1.57-0.38-2.38-0.576-4.61-25.7-8.99-51.5-13.3-77.3-0.917-5.5-1.84-11-2.76-16.5-0.718-4.28-1.43-8.56-2.15-12.8-0.339-2.03-0.68-4.06-1.02-6.09-0.473-2.81-0.94-5.62-1.41-8.43-0.14-0.826-0.28-1.65-0.425-2.5-1.3-7.91-1.3-7.91-0.949-11.3 2.08-2.35 2.08-2.35 4.81-4.62 0.893-0.755 1.79-1.51 2.71-2.29 0.819-0.688 1.64-1.38 2.48-2.09 1.01-0.994 2.01-1.99 3-3 1.16-1.01 2.33-2.01 3.5-3 10.8-9.43 20.1-20 29.2-31.1 0.559-0.682 1.12-1.36 1.69-2.07 2.44-3 4.75-5.94 6.76-9.24 1.86-2.57 1.86-2.57 3.74-3.59 3.03 0.0224 5.21 1.06 7.99 2.27 15.9 6.36 33.1 8.62 49.3 2.19 1.42-0.613 2.84-1.24 4.25-1.88 0.769-0.346 1.54-0.693 2.33-1.05 19.4-8.99 36.7-22.1 53-35.8 0.895-0.745 1.79-1.49 2.71-2.26 0.803-0.682 1.61-1.36 2.43-2.07 0.703-0.452 1.41-0.905 2.13-1.37z" fill="#000002"/>
<path transform="translate(715 863)" d="m0 0c10.2 6.9 17.5 17.1 20.1 29.3 1.19 15.6 0.242 30.2-5 45-0.419 1.19-0.838 2.39-1.27 3.62-2.16 5.59-4.41 10.2-8.73 14.4h-2c-0.495 1.49-0.495 1.49-1 3-1.82 1.55-3.71 3.02-5.62 4.44-1.2 0.897-2.4 1.8-3.6 2.7-0.938 0.704-0.938 0.704-1.9 1.42-1.82 1.4-3.58 2.84-5.34 4.31-22.8 19.1-47.2 34-77.5 32.1-3.88-0.605-7.35-1.59-11-3-0.95-0.36-1.9-0.719-2.88-1.09-2.39-0.934-4.76-1.9-7.12-2.91 0.587-3.75 1.65-6.56 3.5-9.86 0.74-1.33 0.74-1.33 1.49-2.69 0.516-0.912 1.03-1.82 1.56-2.76 0.78-1.4 0.78-1.4 1.58-2.82 1.28-2.29 2.57-4.58 3.86-6.87 1.73 0.142 3.46 0.289 5.19 0.438 1.44 0.122 1.44 0.122 2.92 0.246 2.89 0.316 2.89 0.316 5.46 0.839 15.8 3.1 34.6 0.893 48.4-7.52 3.78-2.57 5.87-4.96 8-9-0.617 0.254-1.23 0.508-1.87 0.77-15.5 6.28-29.5 8.54-46.1 9.23 0.77-3.6 1.75-5.01 4.5-7.5 10.6-10.3 17.2-22.5 23-36 2.83-6.39 5.47-10.3 11.8-13.6 4.59-1.53 8.98-1.4 13.7-0.914-0.33-0.99-0.66-1.98-1-3-5-2.5-11.7-1.58-17-0.234-11.9 4.66-15.9 15.7-21.1 26.4-6.26 12.7-16.7 29.6-30.4 35.3-0.825 0.186-1.65 0.371-2.5 0.562 0.547-5.43 1.6-10.3 3.31-15.5 3.12-10 4.65-20.2 6.23-30.6 0.479-3.12 0.96-6.24 1.46-9.35 0.149-0.948 0.298-1.9 0.451-2.87 2.84-14.2 12.6-26.9 24.4-34.9 2.03-1.28 4.08-2.55 6.12-3.81 0.837-0.547 1.67-1.09 2.54-1.66 6.47-4.12 13.2-6.82 20.5-9.34 1.18-0.433 2.35-0.866 3.56-1.31 10.8-2.16 19.9-0.542 29.3 5.01z" fill="#000002"/>
<path transform="translate(420 796)" d="m0 0c9.56 7.77 15.7 19.3 17.6 31.4 1.11 13.7-1.17 27.5-8.75 39.1-0.431 0.688-0.861 1.38-1.3 2.09-6.33 9.33-17.1 15.4-27.7 18.9-13.2 0.921-26.2 0.461-39-3-1.02-0.251-2.04-0.503-3.09-0.762-5.02-1.33-5.02-1.33-6.91-2.24-1.06-3.18-1.17-5.53-1.22-8.87-0.0225-1.21-0.045-2.42-0.0682-3.66-0.0711-5.54-0.129-11.1-0.167-16.6-0.0222-2.92-0.0639-5.84-0.123-8.75-0.0716-3.54-0.108-7.07-0.12-10.6-0.0153-1.99-0.0651-3.97-0.116-5.96 0.0223-10.2 3.04-15.6 10-22.8 16-15.5 41.7-21 61-8.16z" fill="#FDFDFD"/>
<path transform="translate(381,647)" d="m0 0h3c0.553 1.08 1.11 2.16 1.68 3.28 2.11 4.11 4.21 8.23 6.32 12.3 0.902 1.76 1.8 3.52 2.71 5.29 1.31 2.57 2.63 5.14 3.95 7.71 0.437 0.855 0.874 1.71 1.32 2.59 2.25 4.4 4.54 8.77 6.89 13.1 0.46 0.856 0.92 1.71 1.39 2.6 0.873 1.62 1.75 3.24 2.64 4.85 2.2 4.1 3.67 7.52 4.1 12.2-3.95 1.06-7.91 2.1-11.9 3.12-1.69 0.454-1.69 0.454-3.42 0.918-1.08 0.277-2.15 0.554-3.26 0.84-1.49 0.393-1.49 0.393-3.02 0.793-0.802 0.107-1.6 0.214-2.43 0.324-2.21-2.21-2.39-2.95-2.96-5.91-0.159-0.813-0.318-1.63-0.481-2.46-0.243-1.33-0.243-1.33-0.491-2.69-0.172-0.922-0.344-1.84-0.521-2.79-3.3-18.4-5.91-37.5-5.54-56.1z" fill="#000002"/>
<path transform="translate(456,877)" d="m0 0 1 2c-2.31 3.3-4.62 6.6-7 10 2.48 4.95 2.48 4.95 5 10-0.887-0.309-1.77-0.619-2.69-0.938-1.09-0.351-2.19-0.701-3.31-1.06-0.825-0.289-1.65-0.577-2.5-0.875-3.73-0.187-5.48 1.75-8.5 3.88-1.07 0.755-2.15 1.51-3.25 2.29-1.66 1.17-3.32 2.35-4.98 3.53-3.15 2.21-6.13 3.92-9.77 5.18 0.61 3.56 1.58 6.68 3 10-6.75-1.75-6.75-1.75-9-4-2.92 0.201-2.92 0.201-6.12 0.875-1.1 0.204-2.19 0.407-3.32 0.617-1.26 0.251-1.26 0.251-2.55 0.508 0.63-0.273 1.26-0.547 1.91-0.828 2.36-1.07 2.36-1.07 3.53-3.92 0.713-4.12-0.42-5.68-2.44-9.25v-4c3.02 0.464 4.39 1.28 6.94 3.12 2.77 2.07 2.77 2.07 5.25 1.86 4.25-1.49 7.42-4.17 10.9-6.93 1.42-1.09 2.84-2.19 4.26-3.28 0.934-0.729 0.934-0.729 1.89-1.47 1.53-1.16 3.13-2.25 4.73-3.31-0.944-2.43-1.88-4.77-3.12-7.06-0.875-1.94-0.875-1.94-0.875-5.94 4 1.37 6.8 3.26 10 6 3.88-1.79 7.96-3.96 11-7z" fill="#FDFDFD"/>
<path transform="translate(368,823)" d="m0 0c5.34 8.99 6.38 20.7 4.46 30.8-1.75 6.67-1.75 6.67-4.41 8.49-2.05 0.664-2.05 0.664-4.68-0.273-3.49-3.03-4.15-6.72-4.58-11.2-0.0996-2.26-0.125-4.5-0.108-6.76 0.00628-1.19 0.00628-1.19 0.0127-2.4 0.127-6.6 0.435-12.9 5.36-17.8 1.94-0.938 1.94-0.938 3.94-0.938z" fill="#000002"/>
<path transform="translate(429,687)" d="m0 0c4.5 0.495 6.57 2.03 9.81 5.12 3.79 3.57 7.65 6.98 11.7 10.3 1.73 1.86 1.97 3.16 2.5 5.61-2.77 0.249-5.54 0.475-8.31 0.688-0.786 0.0728-1.57 0.146-2.38 0.221-0.757 0.0548-1.51 0.11-2.29 0.166-0.696 0.0576-1.39 0.115-2.11 0.175-2.56-0.335-3.33-1.24-4.9-3.25-1.17-3.18-1.17-3.18-2.19-6.88-0.344-1.21-0.688-2.43-1.04-3.68-0.665-2.98-0.936-5.42-0.77-8.45z" fill="#000002"/>
</svg>
